<svg width="16" height="16" viewBox="0 0 16 16" fill="none" xmlns="http://www.w3.org/2000/svg">
<path fill-rule="evenodd" clip-rule="evenodd" d="M3 6C4.65686 6 6 4.65686 6 3C6 1.34314 4.65686 0 3 0C1.34314 0 0 1.34314 0 3C0 4.65686 1.34314 6 3 6ZM13 6C14.6569 6 16 4.65686 16 3C16 1.34314 14.6569 0 13 0C11.3431 0 10 1.34314 10 3C10 4.65686 11.3431 6 13 6ZM6 13C6 14.6569 4.65686 16 3 16C1.34314 16 0 14.6569 0 13C0 11.3431 1.34314 10 3 10C4.65686 10 6 11.3431 6 13ZM13 16C14.6569 16 16 14.6569 16 13C16 11.3431 14.6569 10 13 10C11.3431 10 10 11.3431 10 13C10 14.6569 11.3431 16 13 16Z" fill="#111111"/>
</svg>
